<?xml version="1.0" encoding="UTF-8"?>
<!DOCTYPE svg PUBLIC "-//W3C//DTD SVG 1.1//EN" "http://www.w3.org/Graphics/SVG/1.1/DTD/svg11.dtd">
<svg xmlns="http://www.w3.org/2000/svg" version="1.1" width="63px" height="67px" style="shape-rendering:geometricPrecision; text-rendering:geometricPrecision; image-rendering:optimizeQuality; fill-rule:evenodd; clip-rule:evenodd" xmlns:xlink="http://www.w3.org/1999/xlink">
<g><path style="opacity:0.931" fill="#e30813" d="M 60.5,27.5 C 58.513,26.8358 56.8463,25.6692 55.5,24C 52.8333,23.3333 50.1667,23.3333 47.5,24C 46.7476,24.6708 46.4142,25.5041 46.5,26.5C 43.9438,27.5434 41.7772,29.2101 40,31.5C 38.0183,41.6491 32.5183,49.1491 23.5,54C 12.0953,55.4661 4.0953,50.9661 -0.5,40.5C -0.5,40.1667 -0.5,39.8333 -0.5,39.5C 2.23352,40.721 5.06686,41.721 8,42.5C 10.2527,42.3687 12.4194,41.8687 14.5,41C 15.2524,40.3292 15.5858,39.4959 15.5,38.5C 16.7942,37.7101 17.9609,36.7101 19,35.5C 21.8671,29.884 24.5338,24.2173 27,18.5C 28.8734,16.2911 31.04,14.4578 33.5,13C 47.4766,8.9835 56.4766,13.8168 60.5,27.5 Z"/></g>
<g><path style="opacity:0.995" fill="#d50813" d="M 14.5,24.5 C 9.53458,23.7793 4.53458,23.1126 -0.5,22.5C -0.5,22.1667 -0.5,21.8333 -0.5,21.5C 0.365274,18.4506 2.19861,16.1172 5,14.5C 10.486,15.8147 13.6527,19.1481 14.5,24.5 Z"/></g>
<g><path style="opacity:0.949" fill="#bf0813" d="M -0.5,22.5 C 4.53458,23.1126 9.53458,23.7793 14.5,24.5C 14.1667,27.1667 13.8333,29.8333 13.5,32.5C 8.83333,31.1667 4.16667,31.1667 -0.5,32.5C -0.5,29.1667 -0.5,25.8333 -0.5,22.5 Z"/></g>
<g><path style="opacity:0.958" fill="#9a0814" d="M 60.5,27.5 C 61.404,28.209 61.7373,29.209 61.5,30.5C 60.8485,31.0906 60.1818,31.7573 59.5,32.5C 54.6901,31.244 50.3568,29.244 46.5,26.5C 46.4142,25.5041 46.7476,24.6708 47.5,24C 50.1667,23.3333 52.8333,23.3333 55.5,24C 56.8463,25.6692 58.513,26.8358 60.5,27.5 Z"/></g>
<g><path style="opacity:0.833" fill="#a80914" d="M 46.5,26.5 C 50.3568,29.244 54.6901,31.244 59.5,32.5C 60.1818,31.7573 60.8485,31.0906 61.5,30.5C 61.5,33.1667 61.5,35.8333 61.5,38.5C 56.4786,36.562 51.4786,35.562 46.5,35.5C 46.5,32.5 46.5,29.5 46.5,26.5 Z"/></g>
<g><path style="opacity:0.951" fill="#af0814" d="M 13.5,32.5 C 14.3007,34.0418 14.634,35.7085 14.5,37.5C 9.29658,35.9069 4.29658,36.2402 -0.5,38.5C -0.5,36.5 -0.5,34.5 -0.5,32.5C 4.16667,31.1667 8.83333,31.1667 13.5,32.5 Z"/></g>
<g><path style="opacity:0.972" fill="#b40814" d="M 61.5,38.5 C 61.5,39.1667 61.5,39.8333 61.5,40.5C 60.5416,40.9528 59.7083,41.6195 59,42.5C 55.6532,40.9399 52.1532,39.7733 48.5,39C 47.9341,38.0053 47.2674,37.172 46.5,36.5C 46.5,36.1667 46.5,35.8333 46.5,35.5C 51.4786,35.562 56.4786,36.562 61.5,38.5 Z"/></g>
<g><path style="opacity:0.998" fill="#a10914" d="M 14.5,37.5 C 15.1667,37.5 15.5,37.8333 15.5,38.5C 15.5858,39.4959 15.2524,40.3292 14.5,41C 12.4194,41.8687 10.2527,42.3687 8,42.5C 5.06686,41.721 2.23352,40.721 -0.5,39.5C -0.5,39.1667 -0.5,38.8333 -0.5,38.5C 4.29658,36.2402 9.29658,35.9069 14.5,37.5 Z"/></g>
<g><path style="opacity:0.955" fill="#c20813" d="M 46.5,36.5 C 47.2674,37.172 47.9341,38.0053 48.5,39C 52.1532,39.7733 55.6532,40.9399 59,42.5C 59.7083,41.6195 60.5416,40.9528 61.5,40.5C 61.5,41.8333 61.5,43.1667 61.5,44.5C 60.1667,44.5 59.5,45.1667 59.5,46.5C 56.0214,44.8777 52.3548,43.711 48.5,43C 47.9341,42.0053 47.2674,41.172 46.5,40.5C 46.5,39.1667 46.5,37.8333 46.5,36.5 Z"/></g>
<g><path style="opacity:0.988" fill="#d00813" d="M 46.5,40.5 C 47.2674,41.172 47.9341,42.0053 48.5,43C 52.3548,43.711 56.0214,44.8777 59.5,46.5C 59.1435,47.8699 58.3102,48.8699 57,49.5C 53.7999,48.7933 50.6332,47.96 47.5,47C 46.6195,46.2917 45.9528,45.4584 45.5,44.5C 45.2322,42.901 45.5655,41.5676 46.5,40.5 Z"/></g>
<g><path style="opacity:0.656" fill="#de0813" d="M 45.5,44.5 C 45.9528,45.4584 46.6195,46.2917 47.5,47C 50.6332,47.96 53.7999,48.7933 57,49.5C 58.3102,48.8699 59.1435,47.8699 59.5,46.5C 59.5,45.1667 60.1667,44.5 61.5,44.5C 60.4394,47.5107 59.2727,50.5107 58,53.5C 51.1198,55.8097 46.6198,53.4763 44.5,46.5C 44.5427,45.5836 44.8761,44.9169 45.5,44.5 Z"/></g>
</svg>
